# xmcd
#
# Track frame offsets:
#	150
#	31746
#	46134
#	95407
#	118665
#	189916
#	208568
#	229052
#	279469
#
# Disc length: 4241 seconds
# Revision: 0
# Processed by: cddbd v1.5.2PL0 Copyright (c) Steve Scherf et al.
# Submitted via: dBpowerAMP V12.0
#
DISCID=6e108f09
DTITLE=Various Artist - Klara Top 75 (Editie 2008)
DYEAR=2008
DGENRE=Classical
TTITLE0=W.A. Mozart - Symfonie nr. 40, "Molto Allegro"
TTITLE1=E. Satie - Gymnopédie nr. 1
TTITLE2=B. Smetana - Mijn Vaderland, "De Moldau"
TTITLE3=J.S. Bach - Suite nr. 3, "Air"
TTITLE4=M. Ravel - Bolero
TTITLE5=C. Monteverdi - Pur Te Miro
TTITLE6=F. Liszt - Liebestraum nr. 2 in As
TTITLE7=A. Vivaldi - Gloria (Fragment)
TTITLE8=J. Brahms - Vioolconcerto, "Allegro Giocoso"
EXTD=
EXTT0=
EXTT1=
EXTT2=
EXTT3=
EXTT4=
EXTT5=
EXTT6=
EXTT7=
EXTT8=
PLAYORDER=
